<svg width="90" height="90" viewBox="0 0 90 90" fill="none" xmlns="http://www.w3.org/2000/svg">
<path d="M68.5 15C68.5 15.828 67.828 16.5 67 16.5C66.172 16.5 65.5 15.828 65.5 15C65.5 14.172 66.172 13.5 67 13.5C67.828 13.5 68.5 14.172 68.5 15ZM21.5 15C21.5 15.828 22.172 16.5 23 16.5C23.828 16.5 24.5 15.828 24.5 15C24.5 14.172 23.828 13.5 23 13.5C22.172 13.5 21.5 14.172 21.5 15ZM67 19.983V63H23V20C20.238 20 18 17.761 18 15C18 12.239 20.238 10 23 10H43V2C43 0.897 43.896 0 45 0C46.104 0 47 0.896 47 2V10H67C69.762 10 72 12.239 72 15C72 17.705 69.689 19.895 67 19.983ZM26 15C26 13.346 24.654 12 23 12C21.346 12 20 13.346 20 15C20 16.654 21.346 18 23 18C24.654 18 26 16.654 26 15ZM33 54.5C33 53.672 32.328 53 31.5 53C30.672 53 30 53.672 30 54.5C30 55.328 30.672 56 31.5 56C32.328 56 33 55.328 33 54.5ZM33 48.5C33 47.672 32.328 47 31.5 47C30.672 47 30 47.672 30 48.5C30 49.328 30.672 50 31.5 50C32.328 50 33 49.328 33 48.5ZM33 42.5C33 41.672 32.328 41 31.5 41C30.672 41 30 41.672 30 42.5C30 43.328 30.672 44 31.5 44C32.328 44 33 43.328 33 42.5ZM33 36.5C33 35.672 32.328 35 31.5 35C30.672 35 30 35.672 30 36.5C30 37.328 30.672 38 31.5 38C32.328 38 33 37.328 33 36.5ZM33 30.5C33 29.672 32.328 29 31.5 29C30.672 29 30 29.672 30 30.5C30 31.328 30.672 32 31.5 32C32.328 32 33 31.328 33 30.5ZM33 24.5C33 23.672 32.328 23 31.5 23C30.672 23 30 23.672 30 24.5C30 25.328 30.672 26 31.5 26C32.328 26 33 25.328 33 24.5ZM39.75 54.5C39.75 53.672 39.078 53 38.25 53C37.422 53 36.75 53.672 36.75 54.5C36.75 55.328 37.422 56 38.25 56C39.078 56 39.75 55.328 39.75 54.5ZM39.75 48.5C39.75 47.672 39.078 47 38.25 47C37.422 47 36.75 47.672 36.75 48.5C36.75 49.328 37.422 50 38.25 50C39.078 50 39.75 49.328 39.75 48.5ZM39.75 42.5C39.75 41.672 39.078 41 38.25 41C37.422 41 36.75 41.672 36.75 42.5C36.75 43.328 37.422 44 38.25 44C39.078 44 39.75 43.328 39.75 42.5ZM39.75 36.5C39.75 35.672 39.078 35 38.25 35C37.422 35 36.75 35.672 36.75 36.5C36.75 37.328 37.422 38 38.25 38C39.078 38 39.75 37.328 39.75 36.5ZM39.75 30.5C39.75 29.672 39.078 29 38.25 29C37.422 29 36.75 29.672 36.75 30.5C36.75 31.328 37.422 32 38.25 32C39.078 32 39.75 31.328 39.75 30.5ZM39.75 24.5C39.75 23.672 39.078 23 38.25 23C37.422 23 36.75 23.672 36.75 24.5C36.75 25.328 37.422 26 38.25 26C39.078 26 39.75 25.328 39.75 24.5ZM46.5 54.5C46.5 53.672 45.828 53 45 53C44.172 53 43.5 53.672 43.5 54.5C43.5 55.328 44.172 56 45 56C45.828 56 46.5 55.328 46.5 54.5ZM46.5 48.5C46.5 47.672 45.828 47 45 47C44.172 47 43.5 47.672 43.5 48.5C43.5 49.328 44.172 50 45 50C45.828 50 46.5 49.328 46.5 48.5ZM46.5 42.5C46.5 41.672 45.828 41 45 41C44.172 41 43.5 41.672 43.5 42.5C43.5 43.328 44.172 44 45 44C45.828 44 46.5 43.328 46.5 42.5ZM46.5 36.5C46.5 35.672 45.828 35 45 35C44.172 35 43.5 35.672 43.5 36.5C43.5 37.328 44.172 38 45 38C45.828 38 46.5 37.328 46.5 36.5ZM46.5 30.5C46.5 29.672 45.828 29 45 29C44.172 29 43.5 29.672 43.5 30.5C43.5 31.328 44.172 32 45 32C45.828 32 46.5 31.328 46.5 30.5ZM46.5 24.5C46.5 23.672 45.828 23 45 23C44.172 23 43.5 23.672 43.5 24.5C43.5 25.328 44.172 26 45 26C45.828 26 46.5 25.328 46.5 24.5ZM53.25 54.5C53.25 53.672 52.578 53 51.75 53C50.922 53 50.25 53.672 50.25 54.5C50.25 55.328 50.922 56 51.75 56C52.578 56 53.25 55.328 53.25 54.5ZM53.25 48.5C53.25 47.672 52.578 47 51.75 47C50.922 47 50.25 47.672 50.25 48.5C50.25 49.328 50.922 50 51.75 50C52.578 50 53.25 49.328 53.25 48.5ZM53.25 42.5C53.25 41.672 52.578 41 51.75 41C50.922 41 50.25 41.672 50.25 42.5C50.25 43.328 50.922 44 51.75 44C52.578 44 53.25 43.328 53.25 42.5ZM53.25 36.5C53.25 35.672 52.578 35 51.75 35C50.922 35 50.25 35.672 50.25 36.5C50.25 37.328 50.922 38 51.75 38C52.578 38 53.25 37.328 53.25 36.5ZM53.25 30.5C53.25 29.672 52.578 29 51.75 29C50.922 29 50.25 29.672 50.25 30.5C50.25 31.328 50.922 32 51.75 32C52.578 32 53.25 31.328 53.25 30.5ZM53.25 24.5C53.25 23.672 52.578 23 51.75 23C50.922 23 50.25 23.672 50.25 24.5C50.25 25.328 50.922 26 51.75 26C52.578 26 53.25 25.328 53.25 24.5ZM60 54.5C60 53.672 59.328 53 58.5 53C57.672 53 57 53.672 57 54.5C57 55.328 57.672 56 58.5 56C59.328 56 60 55.328 60 54.5ZM60 48.5C60 47.672 59.328 47 58.5 47C57.672 47 57 47.672 57 48.5C57 49.328 57.672 50 58.5 50C59.328 50 60 49.328 60 48.5ZM60 42.5C60 41.672 59.328 41 58.5 41C57.672 41 57 41.672 57 42.5C57 43.328 57.672 44 58.5 44C59.328 44 60 43.328 60 42.5ZM60 36.5C60 35.672 59.328 35 58.5 35C57.672 35 57 35.672 57 36.5C57 37.328 57.672 38 58.5 38C59.328 38 60 37.328 60 36.5ZM60 30.5C60 29.672 59.328 29 58.5 29C57.672 29 57 29.672 57 30.5C57 31.328 57.672 32 58.5 32C59.328 32 60 31.328 60 30.5ZM60 24.5C60 23.672 59.328 23 58.5 23C57.672 23 57 23.672 57 24.5C57 25.328 57.672 26 58.5 26C59.328 26 60 25.328 60 24.5ZM70 15C70 13.346 68.654 12 67 12C65.346 12 64 13.346 64 15C64 16.654 65.346 18 67 18C68.654 18 70 16.654 70 15ZM14 62V53L11 56L8 53V62C8 69.183 13.817 75 21 75V69C17.134 69 14 65.866 14 62ZM79 56L76 53V62C76 65.866 72.866 69 69 69V75C76.183 75 82 69.183 82 62V53L79 56ZM23 65H67V78C67 79.1 66.1 80 65 80H63V87C63 88.657 61.656 90 60 90C58.344 90 57 88.657 57 87V80H48V87C48 88.657 46.656 90 45 90C43.344 90 42 88.657 42 87V80H33V87C33 88.657 31.656 90 30 90C28.344 90 27 88.657 27 87V80H25C23.9 80 23 79.1 23 78V65ZM36.75 72.5C36.75 73.328 37.422 74 38.25 74H58.5C59.328 74 60 73.328 60 72.5C60 71.672 59.328 71 58.5 71H38.25C37.422 71 36.75 71.672 36.75 72.5ZM30 72.5C30 73.328 30.672 74 31.5 74C32.328 74 33 73.328 33 72.5C33 71.672 32.328 71 31.5 71C30.672 71 30 71.672 30 72.5Z" fill="black"/>
</svg>
